<svg width="384" height="242" viewBox="0 0 384 242" fill="none" xmlns="http://www.w3.org/2000/svg">
<path d="M106.953 186.311C105.015 186.311 103.326 186.019 101.886 185.433C100.445 184.848 99.3249 183.964 98.5241 182.78C97.7232 181.596 97.3076 180.108 97.2772 178.315H102.568C102.62 179.063 102.828 179.692 103.192 180.2C103.556 180.708 104.053 181.091 104.684 181.347C105.314 181.603 106.047 181.731 106.882 181.731C107.649 181.731 108.308 181.627 108.857 181.417C109.407 181.208 109.829 180.916 110.125 180.54C110.421 180.165 110.568 179.732 110.568 179.241C110.568 178.792 110.433 178.41 110.161 178.096C109.89 177.782 109.476 177.505 108.921 177.266C108.366 177.028 107.659 176.813 106.802 176.624L104.346 176.053C102.336 175.593 100.757 174.842 99.6088 173.801C98.4602 172.76 97.8859 171.362 97.8859 169.606C97.8859 168.167 98.2757 166.908 99.0553 165.828C99.8349 164.749 100.906 163.909 102.269 163.308C103.631 162.707 105.193 162.406 106.955 162.406C108.755 162.406 110.317 162.711 111.641 163.32C112.964 163.929 113.991 164.778 114.721 165.869C115.45 166.96 115.824 168.224 115.842 169.663H110.537C110.465 168.812 110.123 168.152 109.512 167.683C108.9 167.213 108.041 166.979 106.932 166.979C106.201 166.979 105.587 167.076 105.089 167.269C104.591 167.463 104.217 167.73 103.967 168.073C103.716 168.415 103.591 168.804 103.591 169.24C103.591 169.712 103.733 170.112 104.016 170.441C104.3 170.769 104.701 171.044 105.219 171.265C105.738 171.485 106.342 171.674 107.031 171.83L109.038 172.292C110.162 172.538 111.165 172.866 112.047 173.277C112.929 173.687 113.676 174.178 114.288 174.75C114.9 175.321 115.365 175.981 115.681 176.73C115.997 177.479 116.155 178.32 116.155 179.252C116.155 180.721 115.788 181.984 115.056 183.04C114.323 184.097 113.271 184.906 111.9 185.468C110.528 186.03 108.88 186.311 106.953 186.311ZM124.335 186.219C123.118 186.219 122.054 185.947 121.144 185.403C120.234 184.859 119.529 184.094 119.03 183.107C118.532 182.12 118.282 180.967 118.282 179.649V168.531H123.731V178.595C123.731 179.575 123.982 180.344 124.485 180.902C124.987 181.461 125.686 181.74 126.58 181.74C127.176 181.74 127.695 181.611 128.139 181.353C128.583 181.096 128.93 180.724 129.181 180.239C129.432 179.753 129.557 179.174 129.557 178.501V168.531H135.01V186H129.88L129.785 181.587H130.018C129.587 182.985 128.914 184.107 127.998 184.952C127.083 185.796 125.861 186.219 124.335 186.219ZM148.283 186.256C147.4 186.256 146.634 186.108 145.985 185.811C145.336 185.514 144.797 185.131 144.369 184.662C143.941 184.194 143.612 183.695 143.383 183.166H143.189V186H137.81V162.719H143.259V171.53H143.383C143.605 171.004 143.924 170.494 144.342 170C144.759 169.506 145.295 169.102 145.95 168.786C146.605 168.47 147.397 168.312 148.327 168.312C149.555 168.312 150.697 168.634 151.751 169.276C152.805 169.918 153.657 170.901 154.307 172.227C154.957 173.552 155.282 175.239 155.282 177.289C155.282 179.262 154.969 180.913 154.344 182.244C153.719 183.574 152.878 184.576 151.82 185.248C150.762 185.92 149.583 186.256 148.283 186.256ZM146.424 181.995C147.13 181.995 147.723 181.8 148.204 181.409C148.685 181.018 149.051 180.468 149.302 179.758C149.554 179.049 149.679 178.223 149.679 177.281C149.679 176.334 149.554 175.508 149.304 174.803C149.055 174.099 148.689 173.551 148.208 173.16C147.727 172.769 147.132 172.574 146.424 172.574C145.731 172.574 145.139 172.765 144.647 173.149C144.156 173.532 143.78 174.075 143.521 174.777C143.262 175.479 143.133 176.314 143.133 177.281C143.133 178.232 143.263 179.06 143.523 179.765C143.783 180.47 144.16 181.017 144.653 181.408C145.146 181.799 145.736 181.995 146.424 181.995ZM164.767 186.327C163.276 186.327 161.958 186.115 160.812 185.691C159.666 185.267 158.733 184.658 158.014 183.863C157.295 183.069 156.836 182.116 156.635 181.006L161.694 180.211C161.912 180.963 162.283 181.534 162.805 181.922C163.328 182.311 164.051 182.505 164.973 182.505C165.733 182.505 166.33 182.371 166.765 182.104C167.2 181.836 167.418 181.482 167.418 181.04C167.418 180.642 167.244 180.319 166.898 180.073C166.551 179.826 166.013 179.631 165.283 179.489L162.234 178.896C160.508 178.561 159.216 177.972 158.358 177.13C157.501 176.288 157.072 175.198 157.072 173.858C157.072 172.691 157.386 171.696 158.016 170.871C158.646 170.046 159.535 169.413 160.683 168.973C161.831 168.533 163.187 168.312 164.752 168.312C166.211 168.312 167.48 168.508 168.56 168.899C169.64 169.29 170.511 169.846 171.171 170.568C171.832 171.289 172.261 172.152 172.458 173.157L167.643 173.92C167.482 173.335 167.161 172.88 166.679 172.555C166.197 172.231 165.587 172.069 164.85 172.069C164.189 172.069 163.632 172.199 163.181 172.461C162.73 172.722 162.504 173.079 162.504 173.531C162.504 173.884 162.645 174.195 162.928 174.462C163.211 174.73 163.724 174.937 164.468 175.081L167.809 175.706C169.543 176.034 170.835 176.585 171.687 177.359C172.538 178.134 172.964 179.156 172.964 180.425C172.964 181.62 172.612 182.659 171.907 183.543C171.202 184.427 170.235 185.112 169.004 185.598C167.774 186.084 166.361 186.327 164.767 186.327Z" fill="#1F2937"/>
<path d="M172.604 167.22V162.719H192.193V167.22H185.157V186H179.647V167.22H172.604ZM192.419 186V168.531H197.703V171.718H197.89C198.205 170.563 198.725 169.706 199.45 169.145C200.176 168.585 201.015 168.305 201.97 168.305C202.226 168.305 202.491 168.322 202.766 168.356C203.04 168.39 203.293 168.44 203.523 168.506V173.246C203.265 173.154 202.924 173.085 202.5 173.04C202.075 172.994 201.695 172.971 201.36 172.971C200.693 172.971 200.094 173.118 199.563 173.412C199.032 173.705 198.617 174.113 198.317 174.635C198.017 175.158 197.868 175.767 197.868 176.464V186H192.419ZM209.31 186.311C208.198 186.311 207.207 186.121 206.338 185.74C205.468 185.359 204.788 184.787 204.296 184.024C203.805 183.262 203.559 182.304 203.559 181.15C203.559 180.182 203.729 179.365 204.069 178.701C204.41 178.036 204.881 177.496 205.483 177.082C206.085 176.667 206.777 176.349 207.56 176.128C208.342 175.908 209.175 175.761 210.059 175.689C211.053 175.601 211.852 175.509 212.457 175.412C213.062 175.315 213.503 175.168 213.782 174.972C214.06 174.775 214.199 174.498 214.199 174.142V174.072C214.199 173.668 214.105 173.326 213.917 173.046C213.729 172.767 213.46 172.553 213.108 172.405C212.756 172.257 212.329 172.183 211.825 172.183C211.324 172.183 210.88 172.257 210.492 172.407C210.104 172.556 209.785 172.765 209.533 173.033C209.282 173.301 209.107 173.618 209.006 173.985L204.059 173.344C204.293 172.345 204.747 171.468 205.42 170.715C206.093 169.962 206.973 169.373 208.06 168.949C209.147 168.525 210.42 168.312 211.878 168.312C212.96 168.312 213.972 168.44 214.915 168.696C215.857 168.951 216.683 169.327 217.392 169.823C218.1 170.318 218.653 170.928 219.051 171.65C219.449 172.373 219.648 173.203 219.648 174.14V186H214.519V183.554H214.379C214.062 184.15 213.663 184.652 213.182 185.061C212.701 185.469 212.139 185.78 211.497 185.993C210.854 186.205 210.125 186.311 209.31 186.311ZM210.97 182.699C211.584 182.699 212.138 182.575 212.631 182.327C213.124 182.079 213.517 181.736 213.808 181.299C214.1 180.862 214.246 180.356 214.246 179.783V178.109C214.092 178.189 213.897 178.266 213.662 178.339C213.427 178.413 213.169 178.48 212.888 178.539C212.607 178.599 212.326 178.651 212.045 178.697C211.763 178.742 211.495 178.785 211.24 178.824C210.705 178.899 210.251 179.027 209.876 179.206C209.501 179.385 209.216 179.615 209.02 179.895C208.824 180.174 208.726 180.509 208.726 180.899C208.726 181.289 208.823 181.618 209.017 181.886C209.211 182.154 209.475 182.356 209.811 182.493C210.147 182.63 210.533 182.699 210.97 182.699ZM230.554 186.327C228.734 186.327 227.167 185.951 225.856 185.197C224.544 184.443 223.538 183.391 222.835 182.04C222.133 180.69 221.782 179.119 221.782 177.327C221.782 175.528 222.133 173.953 222.835 172.602C223.538 171.25 224.544 170.197 225.856 169.443C227.167 168.689 228.734 168.312 230.554 168.312C231.675 168.312 232.698 168.458 233.622 168.748C234.546 169.038 235.358 169.452 236.057 169.99C236.756 170.528 237.321 171.179 237.753 171.945C238.185 172.71 238.47 173.568 238.606 174.518L233.576 175.355C233.49 174.899 233.363 174.494 233.193 174.138C233.024 173.783 232.816 173.481 232.569 173.233C232.322 172.985 232.036 172.797 231.711 172.67C231.386 172.542 231.024 172.479 230.626 172.479C229.926 172.479 229.332 172.671 228.843 173.054C228.354 173.438 227.981 173.99 227.723 174.711C227.466 175.431 227.337 176.295 227.337 177.304C227.337 178.299 227.466 179.16 227.723 179.887C227.981 180.615 228.354 181.175 228.843 181.57C229.332 181.964 229.926 182.161 230.626 182.161C231.027 182.161 231.391 182.095 231.718 181.962C232.046 181.83 232.336 181.636 232.59 181.382C232.843 181.127 233.055 180.813 233.224 180.441C233.393 180.069 233.517 179.649 233.594 179.18L238.621 180.005C238.487 180.984 238.203 181.862 237.77 182.637C237.337 183.413 236.772 184.076 236.076 184.627C235.379 185.178 234.566 185.599 233.635 185.891C232.705 186.182 231.678 186.327 230.554 186.327ZM245.615 181.358V174.845H246.404L251.402 168.531H257.606L250.276 177.481H248.848L245.615 181.358ZM240.706 186V162.719H246.155V186H240.706ZM251.551 186L246.906 178.7L250.498 174.827L257.856 186H251.551ZM266.284 186.327C264.462 186.327 262.891 185.966 261.572 185.244C260.253 184.522 259.241 183.489 258.536 182.145C257.831 180.801 257.479 179.198 257.479 177.335C257.479 175.535 257.831 173.959 258.537 172.607C259.242 171.254 260.239 170.2 261.528 169.445C262.817 168.69 264.337 168.312 266.086 168.312C267.314 168.312 268.442 168.506 269.47 168.892C270.497 169.279 271.388 169.849 272.143 170.602C272.897 171.356 273.481 172.286 273.894 173.393C274.308 174.499 274.515 175.777 274.515 177.225V178.599H259.409V175.416H271.919L269.371 176.172C269.371 175.359 269.249 174.662 269.004 174.08C268.76 173.498 268.398 173.049 267.919 172.734C267.441 172.419 266.845 172.261 266.134 172.261C265.422 172.261 264.822 172.42 264.333 172.738C263.844 173.056 263.473 173.498 263.22 174.065C262.967 174.632 262.84 175.298 262.84 176.064V178.343C262.84 179.238 262.987 179.986 263.28 180.587C263.574 181.187 263.988 181.636 264.522 181.933C265.056 182.23 265.676 182.379 266.383 182.379C266.872 182.379 267.317 182.309 267.717 182.171C268.117 182.032 268.461 181.83 268.749 181.563C269.036 181.297 269.254 180.97 269.401 180.582L274.258 181.379C273.971 182.381 273.469 183.253 272.752 183.995C272.035 184.737 271.132 185.311 270.045 185.717C268.957 186.124 267.703 186.327 266.284 186.327ZM276.575 186V168.531H281.859V171.718H282.046C282.361 170.563 282.881 169.706 283.607 169.145C284.332 168.585 285.172 168.305 286.126 168.305C286.382 168.305 286.647 168.322 286.922 168.356C287.196 168.39 287.449 168.44 287.679 168.506V173.246C287.421 173.154 287.08 173.085 286.656 173.04C286.232 172.994 285.852 172.971 285.516 172.971C284.849 172.971 284.25 173.118 283.719 173.412C283.189 173.705 282.773 174.113 282.473 174.635C282.174 175.158 282.024 175.767 282.024 176.464V186H276.575Z" fill="#2E02E9"/>
<g filter="url(#filter0_dd_50_476)">
<rect x="128" y="2" width="128" height="128" rx="24" fill="#3623CD"/>
<path d="M199.806 56.9134C199.636 55.1946 198.904 53.8594 197.612 52.9077C196.319 51.956 194.565 51.4801 192.349 51.4801C190.843 51.4801 189.572 51.6932 188.535 52.1193C187.498 52.5312 186.703 53.1065 186.149 53.8452C185.609 54.5838 185.339 55.4219 185.339 56.3594C185.311 57.1406 185.474 57.8224 185.829 58.4048C186.198 58.9872 186.703 59.4915 187.342 59.9176C187.981 60.3295 188.72 60.6918 189.558 61.0043C190.396 61.3026 191.291 61.5582 192.242 61.7713L196.163 62.7088C198.066 63.1349 199.813 63.7031 201.404 64.4134C202.995 65.1236 204.373 65.9972 205.538 67.0341C206.703 68.071 207.605 69.2926 208.244 70.6989C208.897 72.1051 209.231 73.7173 209.245 75.5355C209.231 78.206 208.549 80.5213 207.2 82.4815C205.865 84.4276 203.933 85.9403 201.404 87.0199C198.89 88.0852 195.857 88.6179 192.306 88.6179C188.784 88.6179 185.715 88.0781 183.102 86.9986C180.502 85.919 178.471 84.321 177.008 82.2045C175.559 80.0739 174.799 77.4389 174.728 74.2997H183.656C183.755 75.7628 184.174 76.9844 184.913 77.9645C185.666 78.9304 186.667 79.6619 187.917 80.1591C189.181 80.642 190.609 80.8835 192.2 80.8835C193.762 80.8835 195.119 80.6562 196.269 80.2017C197.434 79.7472 198.336 79.1151 198.975 78.3054C199.615 77.4957 199.934 76.5653 199.934 75.5142C199.934 74.5341 199.643 73.7102 199.061 73.0426C198.492 72.375 197.654 71.8068 196.546 71.3381C195.453 70.8693 194.11 70.4432 192.519 70.0597L187.768 68.8665C184.089 67.9716 181.184 66.5724 179.053 64.669C176.923 62.7656 175.865 60.2017 175.879 56.9773C175.865 54.3352 176.568 52.027 177.988 50.0526C179.423 48.0781 181.39 46.5369 183.89 45.429C186.39 44.321 189.231 43.767 192.413 43.767C195.651 43.767 198.478 44.321 200.893 45.429C203.322 46.5369 205.211 48.0781 206.561 50.0526C207.91 52.027 208.606 54.3139 208.649 56.9134H199.806Z" fill="white"/>
<path d="M226.192 31.8079C232.888 38.5034 235.374 48.3117 233.796 58.9114C232.219 69.5108 226.579 80.7946 217.186 90.187C207.794 99.5792 196.511 105.219 185.911 106.796C175.312 108.374 165.503 105.888 158.808 99.1923C152.112 92.4967 149.626 82.6886 151.204 72.0888C152.782 61.4895 158.421 50.2062 167.813 40.8139C177.206 31.4214 188.489 25.7815 199.089 24.2037C209.689 22.6259 219.497 25.1124 226.192 31.8079Z" stroke="#68FADD" stroke-width="3"/>
<path d="M157.04 30.0399C164.426 22.6539 175.099 20.0664 186.279 21.7307C197.46 23.3951 209.222 29.313 218.955 39.0459C228.687 48.7787 234.605 60.5398 236.269 71.7206C237.934 82.9012 235.346 93.5737 227.96 100.96C220.574 108.346 209.902 110.933 198.721 109.269C187.54 107.605 175.779 101.687 166.046 91.9546C156.313 82.2217 150.395 70.4601 148.731 59.2792C147.067 48.0985 149.654 37.426 157.04 30.0399Z" stroke="#3623CD" stroke-width="2"/>
<path d="M159.515 32.5148C165.934 26.0956 175.397 23.6499 185.764 25.1931C196.131 26.7363 207.224 32.2646 216.48 41.5208C225.736 50.7769 231.264 61.8696 232.808 72.2364C234.351 82.6036 231.904 92.0657 225.485 98.485C219.066 104.904 209.604 107.35 199.237 105.807C188.87 104.264 177.777 98.7358 168.521 89.4797C159.265 80.2235 153.736 69.1309 152.193 58.7641C150.65 48.3967 153.096 38.9341 159.515 32.5148Z" stroke="#3623CD" stroke-width="5"/>
<path d="M158.808 31.8077C165.503 25.1122 175.312 22.6257 185.911 24.2035C196.511 25.7814 207.795 31.4213 217.187 40.8136C226.579 50.206 232.219 61.4893 233.796 72.0886C235.374 82.6883 232.888 92.4965 226.192 99.1921C219.497 105.888 209.689 108.374 199.089 106.796C188.489 105.218 177.206 99.5791 167.814 90.1868C158.421 80.7944 152.782 69.5106 151.204 58.9112C149.626 48.3114 152.112 38.5032 158.808 31.8077Z" stroke="#D365FF" stroke-width="3"/>
<circle cx="217" cy="90" r="5" fill="#68FADD" stroke="#3623CD" stroke-width="2"/>
</g>
<g opacity="0.8">
<path d="M95.873 214.088V212.7C96.1055 212.381 96.3368 212.076 96.5669 211.784C96.797 211.493 97.0329 211.208 97.2744 210.93C97.516 210.652 97.7643 210.376 98.0195 210.103L101.062 206.814H102.764L98.416 211.477L98.3477 211.47L95.873 214.088ZM94.9844 217V206.814H96.2832V210.301L96.2627 212.495L96.2832 213.131V217H94.9844ZM101.232 217L97.5479 211.818L98.3545 210.807L102.771 217H101.232ZM106.899 217.164C106.161 217.164 105.524 217 104.989 216.672C104.453 216.344 104.041 215.886 103.751 215.298C103.462 214.71 103.317 214.024 103.317 213.24C103.317 212.456 103.459 211.766 103.741 211.169C104.024 210.572 104.424 210.105 104.941 209.768C105.458 209.43 106.063 209.262 106.756 209.262C107.161 209.262 107.561 209.329 107.956 209.463C108.35 209.598 108.708 209.814 109.029 210.113C109.35 210.411 109.606 210.804 109.798 211.292C109.989 211.78 110.085 212.377 110.085 213.083V213.596H104.151V212.557H109.422L108.848 212.939C108.848 212.438 108.769 211.993 108.612 211.603C108.455 211.213 108.221 210.908 107.911 210.687C107.601 210.466 107.216 210.355 106.756 210.355C106.296 210.355 105.901 210.468 105.573 210.694C105.245 210.919 104.994 211.213 104.821 211.576C104.648 211.938 104.562 212.326 104.562 212.741V213.432C104.562 213.997 104.66 214.476 104.855 214.871C105.051 215.265 105.326 215.563 105.679 215.766C106.032 215.969 106.441 216.07 106.906 216.07C107.207 216.07 107.48 216.027 107.727 215.94C107.973 215.854 108.185 215.723 108.362 215.547C108.54 215.372 108.677 215.154 108.772 214.895L109.962 215.223C109.843 215.605 109.643 215.943 109.36 216.234C109.078 216.526 108.728 216.754 108.311 216.918C107.894 217.082 107.424 217.164 106.899 217.164ZM113.079 206.814V217H111.849V206.814H113.079ZM118.35 217.164C117.657 217.164 117.05 217 116.528 216.672C116.006 216.344 115.599 215.883 115.308 215.291C115.016 214.699 114.87 214.01 114.87 213.227C114.87 212.429 115.016 211.733 115.308 211.138C115.599 210.543 116.006 210.082 116.528 209.754C117.05 209.426 117.657 209.262 118.35 209.262C119.047 209.262 119.658 209.426 120.182 209.754C120.706 210.082 121.114 210.543 121.405 211.138C121.697 211.733 121.843 212.429 121.843 213.227C121.843 214.01 121.697 214.699 121.405 215.291C121.114 215.883 120.706 216.344 120.182 216.672C119.658 217 119.047 217.164 118.35 217.164ZM118.35 216.063C118.865 216.063 119.288 215.931 119.621 215.667C119.954 215.403 120.2 215.055 120.359 214.625C120.519 214.194 120.599 213.728 120.599 213.227C120.599 212.721 120.519 212.25 120.359 211.815C120.2 211.38 119.954 211.029 119.621 210.762C119.288 210.496 118.865 210.362 118.35 210.362C117.839 210.362 117.42 210.496 117.092 210.762C116.764 211.029 116.52 211.379 116.36 211.812C116.201 212.244 116.121 212.716 116.121 213.227C116.121 213.728 116.201 214.194 116.36 214.625C116.52 215.055 116.764 215.403 117.092 215.667C117.42 215.931 117.839 216.063 118.35 216.063ZM124.864 206.814V217H123.634V206.814H124.864ZM129.164 217.178C128.681 217.178 128.242 217.087 127.848 216.904C127.454 216.722 127.141 216.455 126.908 216.104C126.676 215.754 126.56 215.327 126.56 214.826C126.56 214.389 126.646 214.033 126.819 213.76C126.993 213.486 127.224 213.271 127.513 213.114C127.803 212.957 128.123 212.839 128.474 212.762C128.825 212.684 129.178 212.623 129.533 212.577C129.989 212.518 130.36 212.472 130.647 212.44C130.935 212.409 131.148 212.354 131.287 212.276C131.426 212.199 131.495 212.067 131.495 211.88V211.839C131.495 211.52 131.436 211.25 131.317 211.029C131.199 210.808 131.021 210.638 130.784 210.52C130.547 210.401 130.251 210.342 129.896 210.342C129.531 210.342 129.219 210.399 128.959 210.513C128.699 210.627 128.488 210.769 128.327 210.94C128.165 211.111 128.043 211.285 127.961 211.463L126.778 211.073C126.974 210.608 127.239 210.245 127.571 209.983C127.904 209.721 128.271 209.535 128.672 209.426C129.073 209.316 129.469 209.262 129.861 209.262C130.117 209.262 130.407 209.292 130.733 209.354C131.059 209.416 131.373 209.537 131.676 209.72C131.979 209.902 132.23 210.172 132.428 210.53C132.626 210.888 132.726 211.365 132.726 211.962V217H131.516V215.961H131.434C131.347 216.139 131.208 216.322 131.017 216.511C130.825 216.7 130.577 216.859 130.271 216.986C129.966 217.114 129.597 217.178 129.164 217.178ZM129.376 216.091C129.832 216.091 130.217 216.002 130.531 215.824C130.846 215.646 131.085 215.415 131.249 215.13C131.413 214.846 131.495 214.548 131.495 214.238V213.179C131.445 213.238 131.336 213.292 131.167 213.339C130.998 213.387 130.806 213.429 130.589 213.466C130.373 213.502 130.163 213.533 129.96 213.558C129.758 213.583 129.597 213.603 129.479 213.616C129.182 213.653 128.905 213.715 128.648 213.804C128.39 213.893 128.184 214.023 128.029 214.194C127.874 214.365 127.797 214.596 127.797 214.888C127.797 215.152 127.865 215.373 128.002 215.551C128.139 215.729 128.326 215.863 128.562 215.954C128.799 216.045 129.071 216.091 129.376 216.091ZM140.054 206.814V217H138.823V206.814H140.054ZM144.354 217.178C143.87 217.178 143.432 217.087 143.038 216.904C142.643 216.722 142.33 216.455 142.098 216.104C141.865 215.754 141.749 215.327 141.749 214.826C141.749 214.389 141.836 214.033 142.009 213.76C142.182 213.486 142.413 213.271 142.703 213.114C142.992 212.957 143.312 212.839 143.663 212.762C144.014 212.684 144.367 212.623 144.723 212.577C145.178 212.518 145.55 212.472 145.837 212.44C146.124 212.409 146.337 212.354 146.476 212.276C146.615 212.199 146.685 212.067 146.685 211.88V211.839C146.685 211.52 146.625 211.25 146.507 211.029C146.388 210.808 146.211 210.638 145.974 210.52C145.737 210.401 145.44 210.342 145.085 210.342C144.72 210.342 144.408 210.399 144.148 210.513C143.889 210.627 143.678 210.769 143.516 210.94C143.354 211.111 143.232 211.285 143.15 211.463L141.968 211.073C142.164 210.608 142.428 210.245 142.761 209.983C143.093 209.721 143.46 209.535 143.861 209.426C144.262 209.316 144.659 209.262 145.051 209.262C145.306 209.262 145.597 209.292 145.922 209.354C146.248 209.416 146.563 209.537 146.866 209.72C147.169 209.902 147.419 210.172 147.618 210.53C147.816 210.888 147.915 211.365 147.915 211.962V217H146.705V215.961H146.623C146.536 216.139 146.397 216.322 146.206 216.511C146.015 216.7 145.766 216.859 145.461 216.986C145.156 217.114 144.786 217.178 144.354 217.178ZM144.565 216.091C145.021 216.091 145.406 216.002 145.721 215.824C146.035 215.646 146.274 215.415 146.438 215.13C146.603 214.846 146.685 214.548 146.685 214.238V213.179C146.634 213.238 146.525 213.292 146.356 213.339C146.188 213.387 145.995 213.429 145.779 213.466C145.562 213.502 145.353 213.533 145.15 213.558C144.947 213.583 144.786 213.603 144.668 213.616C144.372 213.653 144.095 213.715 143.837 213.804C143.58 213.893 143.374 214.023 143.219 214.194C143.064 214.365 142.986 214.596 142.986 214.888C142.986 215.152 143.055 215.373 143.191 215.551C143.328 215.729 143.515 215.863 143.752 215.954C143.989 216.045 144.26 216.091 144.565 216.091ZM151.306 212.42V217H150.075V209.357H151.258L151.265 211.21H151.094C151.326 210.504 151.658 210.002 152.088 209.706C152.519 209.41 153.024 209.262 153.603 209.262C154.118 209.262 154.569 209.368 154.956 209.58C155.343 209.792 155.645 210.111 155.862 210.537C156.078 210.963 156.187 211.499 156.187 212.146V217H154.956V212.249C154.956 211.661 154.802 211.201 154.495 210.868C154.187 210.535 153.767 210.369 153.233 210.369C152.869 210.369 152.541 210.449 152.249 210.608C151.957 210.768 151.727 211 151.559 211.306C151.39 211.611 151.306 211.982 151.306 212.42ZM161.443 220.021C160.878 220.021 160.389 219.95 159.977 219.806C159.565 219.663 159.222 219.472 158.948 219.235C158.675 218.998 158.458 218.741 158.299 218.463L159.297 217.82C159.406 217.966 159.542 218.128 159.704 218.306C159.865 218.483 160.084 218.635 160.36 218.76C160.636 218.886 160.997 218.948 161.443 218.948C162.054 218.948 162.556 218.802 162.951 218.511C163.345 218.219 163.542 217.759 163.542 217.13V215.599H163.426C163.339 215.744 163.217 215.918 163.06 216.118C162.903 216.319 162.677 216.495 162.383 216.648C162.089 216.801 161.696 216.877 161.204 216.877C160.593 216.877 160.044 216.732 159.557 216.443C159.069 216.153 158.684 215.731 158.401 215.175C158.119 214.619 157.978 213.942 157.978 213.145C157.978 212.356 158.117 211.671 158.395 211.09C158.673 210.509 159.056 210.059 159.546 209.74C160.036 209.421 160.598 209.262 161.231 209.262C161.724 209.262 162.117 209.343 162.411 209.504C162.705 209.666 162.931 209.852 163.091 210.062C163.25 210.271 163.373 210.444 163.46 210.581H163.576V209.357H164.772V217.198C164.772 217.854 164.624 218.391 164.328 218.808C164.032 219.225 163.632 219.532 163.128 219.728C162.625 219.924 162.063 220.021 161.443 220.021ZM161.409 215.783C161.874 215.783 162.266 215.677 162.585 215.465C162.904 215.253 163.146 214.948 163.31 214.549C163.474 214.151 163.556 213.673 163.556 213.117C163.556 212.575 163.475 212.097 163.313 211.685C163.151 211.273 162.911 210.949 162.592 210.714C162.273 210.48 161.879 210.362 161.409 210.362C160.926 210.362 160.523 210.486 160.199 210.735C159.876 210.983 159.633 211.315 159.471 211.729C159.309 212.144 159.229 212.607 159.229 213.117C159.229 213.641 159.311 214.104 159.475 214.505C159.639 214.906 159.882 215.219 160.206 215.445C160.53 215.67 160.931 215.783 161.409 215.783ZM170.029 220.021C169.464 220.021 168.975 219.95 168.563 219.806C168.151 219.663 167.808 219.472 167.534 219.235C167.261 218.998 167.044 218.741 166.885 218.463L167.883 217.82C167.992 217.966 168.128 218.128 168.29 218.306C168.451 218.483 168.67 218.635 168.946 218.76C169.222 218.886 169.583 218.948 170.029 218.948C170.64 218.948 171.142 218.802 171.537 218.511C171.931 218.219 172.128 217.759 172.128 217.13V215.599H172.012C171.925 215.744 171.803 215.918 171.646 216.118C171.489 216.319 171.263 216.495 170.969 216.648C170.675 216.801 170.282 216.877 169.79 216.877C169.179 216.877 168.63 216.732 168.143 216.443C167.655 216.153 167.27 215.731 166.987 215.175C166.705 214.619 166.563 213.942 166.563 213.145C166.563 212.356 166.702 211.671 166.98 211.09C167.258 210.509 167.642 210.059 168.132 209.74C168.622 209.421 169.184 209.262 169.817 209.262C170.31 209.262 170.703 209.343 170.997 209.504C171.291 209.666 171.517 209.852 171.677 210.062C171.836 210.271 171.959 210.444 172.046 210.581H172.162V209.357H173.358V217.198C173.358 217.854 173.21 218.391 172.914 218.808C172.618 219.225 172.218 219.532 171.714 219.728C171.211 219.924 170.649 220.021 170.029 220.021ZM169.995 215.783C170.46 215.783 170.852 215.677 171.171 215.465C171.49 215.253 171.731 214.948 171.896 214.549C172.06 214.151 172.142 213.673 172.142 213.117C172.142 212.575 172.061 212.097 171.899 211.685C171.737 211.273 171.497 210.949 171.178 210.714C170.859 210.48 170.465 210.362 169.995 210.362C169.512 210.362 169.109 210.486 168.785 210.735C168.462 210.983 168.219 211.315 168.057 211.729C167.895 212.144 167.814 212.607 167.814 213.117C167.814 213.641 167.896 214.104 168.061 214.505C168.225 214.906 168.468 215.219 168.792 215.445C169.116 215.67 169.517 215.783 169.995 215.783ZM177.658 217.178C177.175 217.178 176.736 217.087 176.342 216.904C175.948 216.722 175.635 216.455 175.402 216.104C175.17 215.754 175.054 215.327 175.054 214.826C175.054 214.389 175.14 214.033 175.313 213.76C175.487 213.486 175.718 213.271 176.007 213.114C176.297 212.957 176.617 212.839 176.968 212.762C177.319 212.684 177.672 212.623 178.027 212.577C178.483 212.518 178.854 212.472 179.142 212.44C179.429 212.409 179.642 212.354 179.781 212.276C179.92 212.199 179.989 212.067 179.989 211.88V211.839C179.989 211.52 179.93 211.25 179.812 211.029C179.693 210.808 179.515 210.638 179.278 210.52C179.041 210.401 178.745 210.342 178.39 210.342C178.025 210.342 177.713 210.399 177.453 210.513C177.193 210.627 176.983 210.769 176.821 210.94C176.659 211.111 176.537 211.285 176.455 211.463L175.272 211.073C175.468 210.608 175.733 210.245 176.065 209.983C176.398 209.721 176.765 209.535 177.166 209.426C177.567 209.316 177.964 209.262 178.355 209.262C178.611 209.262 178.901 209.292 179.227 209.354C179.553 209.416 179.867 209.537 180.17 209.72C180.473 209.902 180.724 210.172 180.922 210.53C181.121 210.888 181.22 211.365 181.22 211.962V217H180.01V215.961H179.928C179.841 216.139 179.702 216.322 179.511 216.511C179.319 216.7 179.071 216.859 178.766 216.986C178.46 217.114 178.091 217.178 177.658 217.178ZM177.87 216.091C178.326 216.091 178.711 216.002 179.025 215.824C179.34 215.646 179.579 215.415 179.743 215.13C179.907 214.846 179.989 214.548 179.989 214.238V213.179C179.939 213.238 179.83 213.292 179.661 213.339C179.493 213.387 179.3 213.429 179.083 213.466C178.867 213.502 178.657 213.533 178.455 213.558C178.252 213.583 178.091 213.603 177.973 213.616C177.676 213.653 177.4 213.715 177.142 213.804C176.885 213.893 176.678 214.023 176.523 214.194C176.368 214.365 176.291 214.596 176.291 214.888C176.291 215.152 176.359 215.373 176.496 215.551C176.633 215.729 176.82 215.863 177.057 215.954C177.294 216.045 177.565 216.091 177.87 216.091ZM184.61 212.42V217H183.38V209.357H184.562L184.569 211.21H184.398C184.631 210.504 184.962 210.002 185.393 209.706C185.824 209.41 186.328 209.262 186.907 209.262C187.422 209.262 187.873 209.368 188.261 209.58C188.648 209.792 188.95 210.111 189.167 210.537C189.383 210.963 189.491 211.499 189.491 212.146V217H188.261V212.249C188.261 211.661 188.107 211.201 187.799 210.868C187.492 210.535 187.071 210.369 186.538 210.369C186.174 210.369 185.845 210.449 185.554 210.608C185.262 210.768 185.032 211 184.863 211.306C184.695 211.611 184.61 211.982 184.61 212.42ZM193.791 217.178C193.308 217.178 192.869 217.087 192.475 216.904C192.081 216.722 191.768 216.455 191.535 216.104C191.303 215.754 191.187 215.327 191.187 214.826C191.187 214.389 191.273 214.033 191.446 213.76C191.619 213.486 191.851 213.271 192.14 213.114C192.43 212.957 192.75 212.839 193.101 212.762C193.451 212.684 193.805 212.623 194.16 212.577C194.616 212.518 194.987 212.472 195.274 212.44C195.562 212.409 195.775 212.354 195.914 212.276C196.053 212.199 196.122 212.067 196.122 211.88V211.839C196.122 211.52 196.063 211.25 195.944 211.029C195.826 210.808 195.648 210.638 195.411 210.52C195.174 210.401 194.878 210.342 194.522 210.342C194.158 210.342 193.846 210.399 193.586 210.513C193.326 210.627 193.115 210.769 192.954 210.94C192.792 211.111 192.67 211.285 192.588 211.463L191.405 211.073C191.601 210.608 191.866 210.245 192.198 209.983C192.531 209.721 192.898 209.535 193.299 209.426C193.7 209.316 194.096 209.262 194.488 209.262C194.743 209.262 195.034 209.292 195.36 209.354C195.686 209.416 196 209.537 196.303 209.72C196.606 209.902 196.857 210.172 197.055 210.53C197.253 210.888 197.353 211.365 197.353 211.962V217H196.143V215.961H196.061C195.974 216.139 195.835 216.322 195.644 216.511C195.452 216.7 195.204 216.859 194.898 216.986C194.593 217.114 194.224 217.178 193.791 217.178ZM194.003 216.091C194.459 216.091 194.844 216.002 195.158 215.824C195.473 215.646 195.712 215.415 195.876 215.13C196.04 214.846 196.122 214.548 196.122 214.238V213.179C196.072 213.238 195.963 213.292 195.794 213.339C195.625 213.387 195.433 213.429 195.216 213.466C195 213.502 194.79 213.533 194.587 213.558C194.385 213.583 194.224 213.603 194.105 213.616C193.809 213.653 193.532 213.715 193.275 213.804C193.017 213.893 192.811 214.023 192.656 214.194C192.501 214.365 192.424 214.596 192.424 214.888C192.424 215.152 192.492 215.373 192.629 215.551C192.766 215.729 192.952 215.863 193.189 215.954C193.426 216.045 193.698 216.091 194.003 216.091ZM200.743 212.42V217H199.513V209.357H200.695L200.702 211.21H200.531C200.764 210.504 201.095 210.002 201.526 209.706C201.957 209.41 202.461 209.262 203.04 209.262C203.555 209.262 204.006 209.368 204.394 209.58C204.781 209.792 205.083 210.111 205.299 210.537C205.516 210.963 205.624 211.499 205.624 212.146V217H204.394V212.249C204.394 211.661 204.24 211.201 203.932 210.868C203.625 210.535 203.204 210.369 202.671 210.369C202.306 210.369 201.978 210.449 201.687 210.608C201.395 210.768 201.165 211 200.996 211.306C200.827 211.611 200.743 211.982 200.743 212.42ZM214.586 217.164C213.952 217.164 213.392 217.002 212.904 216.679C212.417 216.355 212.036 215.897 211.763 215.305C211.489 214.712 211.353 214.01 211.353 213.199C211.353 212.393 211.49 211.694 211.766 211.104C212.042 210.514 212.424 210.059 212.911 209.74C213.399 209.421 213.959 209.262 214.593 209.262C215.09 209.262 215.484 209.344 215.775 209.508C216.067 209.672 216.292 209.858 216.449 210.065C216.606 210.272 216.726 210.444 216.808 210.581H216.903V206.814H218.134V217H216.944V215.817H216.808C216.726 215.959 216.604 216.135 216.442 216.347C216.28 216.559 216.052 216.748 215.758 216.915C215.464 217.081 215.074 217.164 214.586 217.164ZM214.771 216.063C215.235 216.063 215.627 215.942 215.946 215.698C216.265 215.454 216.507 215.116 216.671 214.683C216.835 214.25 216.917 213.751 216.917 213.186C216.917 212.62 216.836 212.127 216.674 211.706C216.513 211.284 216.272 210.955 215.953 210.718C215.634 210.481 215.24 210.362 214.771 210.362C214.287 210.362 213.885 210.488 213.564 210.738C213.243 210.989 213.002 211.327 212.843 211.753C212.683 212.18 212.604 212.657 212.604 213.186C212.604 213.719 212.684 214.203 212.846 214.638C213.008 215.073 213.251 215.42 213.574 215.677C213.898 215.935 214.297 216.063 214.771 216.063ZM220.294 217V209.357H221.524V217H220.294ZM220.916 208.106C220.684 208.106 220.483 208.027 220.314 207.867C220.146 207.708 220.062 207.516 220.062 207.293C220.062 207.065 220.146 206.873 220.314 206.715C220.483 206.558 220.684 206.479 220.916 206.479C221.153 206.479 221.356 206.558 221.524 206.715C221.693 206.873 221.777 207.065 221.777 207.293C221.777 207.516 221.693 207.708 221.524 207.867C221.356 208.027 221.153 208.106 220.916 208.106ZM226.781 220.021C226.216 220.021 225.727 219.95 225.315 219.806C224.903 219.663 224.56 219.472 224.286 219.235C224.013 218.998 223.796 218.741 223.637 218.463L224.635 217.82C224.744 217.966 224.88 218.128 225.042 218.306C225.203 218.483 225.422 218.635 225.698 218.76C225.973 218.886 226.335 218.948 226.781 218.948C227.392 218.948 227.894 218.802 228.289 218.511C228.683 218.219 228.88 217.759 228.88 217.13V215.599H228.764C228.677 215.744 228.555 215.918 228.398 216.118C228.241 216.319 228.015 216.495 227.721 216.648C227.427 216.801 227.034 216.877 226.542 216.877C225.931 216.877 225.382 216.732 224.895 216.443C224.407 216.153 224.022 215.731 223.739 215.175C223.457 214.619 223.315 213.942 223.315 213.145C223.315 212.356 223.454 211.671 223.732 211.09C224.01 210.509 224.394 210.059 224.884 209.74C225.374 209.421 225.936 209.262 226.569 209.262C227.062 209.262 227.455 209.343 227.749 209.504C228.042 209.666 228.269 209.852 228.429 210.062C228.588 210.271 228.711 210.444 228.798 210.581H228.914V209.357H230.11V217.198C230.11 217.854 229.962 218.391 229.666 218.808C229.37 219.225 228.97 219.532 228.466 219.728C227.963 219.924 227.401 220.021 226.781 220.021ZM226.747 215.783C227.212 215.783 227.604 215.677 227.923 215.465C228.242 215.253 228.483 214.948 228.647 214.549C228.812 214.151 228.894 213.673 228.894 213.117C228.894 212.575 228.813 212.097 228.651 211.685C228.489 211.273 228.249 210.949 227.93 210.714C227.611 210.48 227.216 210.362 226.747 210.362C226.264 210.362 225.861 210.486 225.537 210.735C225.214 210.983 224.971 211.315 224.809 211.729C224.647 212.144 224.566 212.607 224.566 213.117C224.566 213.641 224.648 214.104 224.812 214.505C224.977 214.906 225.22 215.219 225.544 215.445C225.868 215.67 226.269 215.783 226.747 215.783ZM232.271 217V209.357H233.501V217H232.271ZM232.893 208.106C232.66 208.106 232.46 208.027 232.291 207.867C232.122 207.708 232.038 207.516 232.038 207.293C232.038 207.065 232.122 206.873 232.291 206.715C232.46 206.558 232.66 206.479 232.893 206.479C233.13 206.479 233.332 206.558 233.501 206.715C233.67 206.873 233.754 207.065 233.754 207.293C233.754 207.516 233.67 207.708 233.501 207.867C233.332 208.027 233.13 208.106 232.893 208.106ZM238.669 209.357V210.41H234.718V209.357H238.669ZM235.866 207.539H237.097V215.018C237.097 215.359 237.166 215.609 237.305 215.766C237.444 215.923 237.675 216.002 237.999 216.002C238.076 216.002 238.176 215.993 238.296 215.975C238.417 215.956 238.528 215.938 238.628 215.92L238.881 216.959C238.753 217.005 238.609 217.039 238.447 217.062C238.285 217.084 238.124 217.096 237.965 217.096C237.304 217.096 236.789 216.921 236.42 216.573C236.051 216.224 235.866 215.738 235.866 215.113V207.539ZM242.449 217.178C241.966 217.178 241.528 217.087 241.133 216.904C240.739 216.722 240.426 216.455 240.193 216.104C239.961 215.754 239.845 215.327 239.845 214.826C239.845 214.389 239.931 214.033 240.104 213.76C240.278 213.486 240.509 213.271 240.798 213.114C241.088 212.957 241.408 212.839 241.759 212.762C242.11 212.684 242.463 212.623 242.818 212.577C243.274 212.518 243.646 212.472 243.933 212.44C244.22 212.409 244.433 212.354 244.572 212.276C244.711 212.199 244.78 212.067 244.78 211.88V211.839C244.78 211.52 244.721 211.25 244.603 211.029C244.484 210.808 244.306 210.638 244.069 210.52C243.832 210.401 243.536 210.342 243.181 210.342C242.816 210.342 242.504 210.399 242.244 210.513C241.984 210.627 241.774 210.769 241.612 210.94C241.45 211.111 241.328 211.285 241.246 211.463L240.063 211.073C240.259 210.608 240.524 210.245 240.856 209.983C241.189 209.721 241.556 209.535 241.957 209.426C242.358 209.316 242.755 209.262 243.146 209.262C243.402 209.262 243.692 209.292 244.018 209.354C244.344 209.416 244.658 209.537 244.961 209.72C245.264 209.902 245.515 210.172 245.713 210.53C245.912 210.888 246.011 211.365 246.011 211.962V217H244.801V215.961H244.719C244.632 216.139 244.493 216.322 244.302 216.511C244.11 216.7 243.862 216.859 243.557 216.986C243.251 217.114 242.882 217.178 242.449 217.178ZM242.661 216.091C243.117 216.091 243.502 216.002 243.816 215.824C244.131 215.646 244.37 215.415 244.534 215.13C244.698 214.846 244.78 214.548 244.78 214.238V213.179C244.73 213.238 244.621 213.292 244.452 213.339C244.284 213.387 244.091 213.429 243.875 213.466C243.658 213.502 243.448 213.533 243.246 213.558C243.043 213.583 242.882 213.603 242.764 213.616C242.467 213.653 242.191 213.715 241.933 213.804C241.676 213.893 241.469 214.023 241.314 214.194C241.16 214.365 241.082 214.596 241.082 214.888C241.082 215.152 241.15 215.373 241.287 215.551C241.424 215.729 241.611 215.863 241.848 215.954C242.085 216.045 242.356 216.091 242.661 216.091ZM249.401 206.814V217H248.171V206.814H249.401ZM251.356 219.454L251.958 215.578H253.366L252.3 219.454H251.356ZM260.763 206.814V217H259.532V206.814H260.763ZM266.136 217.164C265.397 217.164 264.761 217 264.225 216.672C263.69 216.344 263.277 215.886 262.988 215.298C262.698 214.71 262.554 214.024 262.554 213.24C262.554 212.456 262.695 211.766 262.978 211.169C263.26 210.572 263.66 210.105 264.177 209.768C264.694 209.43 265.299 209.262 265.992 209.262C266.398 209.262 266.798 209.329 267.192 209.463C267.586 209.598 267.944 209.814 268.265 210.113C268.586 210.411 268.843 210.804 269.034 211.292C269.226 211.78 269.321 212.377 269.321 213.083V213.596H263.388V212.557H268.658L268.084 212.939C268.084 212.438 268.005 211.993 267.848 211.603C267.691 211.213 267.457 210.908 267.147 210.687C266.838 210.466 266.452 210.355 265.992 210.355C265.532 210.355 265.138 210.468 264.81 210.694C264.481 210.919 264.231 211.213 264.058 211.576C263.884 211.938 263.798 212.326 263.798 212.741V213.432C263.798 213.997 263.896 214.476 264.092 214.871C264.288 215.265 264.562 215.563 264.916 215.766C265.269 215.969 265.678 216.07 266.143 216.07C266.443 216.07 266.717 216.027 266.963 215.94C267.209 215.854 267.421 215.723 267.599 215.547C267.776 215.372 267.913 215.154 268.009 214.895L269.198 215.223C269.08 215.605 268.879 215.943 268.597 216.234C268.314 216.526 267.964 216.754 267.547 216.918C267.13 217.082 266.66 217.164 266.136 217.164ZM274.633 217.164C274.15 217.164 273.76 217.081 273.464 216.915C273.168 216.748 272.94 216.559 272.78 216.347C272.621 216.135 272.498 215.959 272.411 215.817H272.274V217H271.085V206.814H272.315V210.581H272.411C272.498 210.444 272.618 210.272 272.773 210.065C272.928 209.858 273.152 209.672 273.443 209.508C273.735 209.344 274.129 209.262 274.626 209.262C275.264 209.262 275.826 209.421 276.311 209.74C276.796 210.059 277.177 210.514 277.453 211.104C277.728 211.694 277.866 212.393 277.866 213.199C277.866 214.01 277.729 214.712 277.456 215.305C277.183 215.897 276.803 216.355 276.318 216.679C275.833 217.002 275.271 217.164 274.633 217.164ZM274.448 216.063C274.927 216.063 275.327 215.935 275.648 215.677C275.969 215.42 276.211 215.073 276.373 214.638C276.534 214.203 276.615 213.719 276.615 213.186C276.615 212.657 276.535 212.18 276.376 211.753C276.216 211.327 275.976 210.989 275.655 210.738C275.333 210.488 274.931 210.362 274.448 210.362C273.979 210.362 273.585 210.481 273.266 210.718C272.947 210.955 272.706 211.284 272.544 211.706C272.383 212.127 272.302 212.62 272.302 213.186C272.302 213.751 272.384 214.25 272.548 214.683C272.712 215.116 272.955 215.454 273.276 215.698C273.597 215.942 273.988 216.063 274.448 216.063ZM279.657 217V209.357H280.888V217H279.657ZM280.279 208.106C280.047 208.106 279.846 208.027 279.678 207.867C279.509 207.708 279.425 207.516 279.425 207.293C279.425 207.065 279.509 206.873 279.678 206.715C279.846 206.558 280.047 206.479 280.279 206.479C280.516 206.479 280.719 206.558 280.888 206.715C281.056 206.873 281.141 207.065 281.141 207.293C281.141 207.516 281.056 207.708 280.888 207.867C280.719 208.027 280.516 208.106 280.279 208.106ZM284.278 212.42V217H283.048V206.814H284.278V211.21H284.066C284.299 210.504 284.63 210.002 285.061 209.706C285.492 209.41 285.996 209.262 286.575 209.262C287.09 209.262 287.542 209.368 287.932 209.58C288.322 209.792 288.625 210.111 288.841 210.537C289.058 210.963 289.166 211.499 289.166 212.146V217H287.929V212.249C287.929 211.661 287.775 211.201 287.467 210.868C287.16 210.535 286.739 210.369 286.206 210.369C285.841 210.369 285.513 210.449 285.222 210.608C284.93 210.768 284.7 211 284.531 211.306C284.363 211.611 284.278 211.982 284.278 212.42ZM170.453 237V229.357H171.649L171.656 231.066H171.561C171.665 230.652 171.831 230.309 172.056 230.038C172.282 229.766 172.546 229.562 172.849 229.426C173.152 229.289 173.468 229.221 173.796 229.221C174.352 229.221 174.802 229.392 175.146 229.733C175.49 230.075 175.712 230.524 175.812 231.08H175.648C175.74 230.697 175.906 230.367 176.147 230.089C176.389 229.811 176.682 229.597 177.026 229.446C177.37 229.296 177.745 229.221 178.15 229.221C178.592 229.221 178.996 229.316 179.36 229.508C179.725 229.699 180.015 229.989 180.232 230.376C180.448 230.763 180.557 231.253 180.557 231.846V237H179.326V231.88C179.326 231.328 179.171 230.934 178.861 230.697C178.551 230.46 178.191 230.342 177.781 230.342C177.439 230.342 177.144 230.414 176.896 230.557C176.648 230.701 176.456 230.898 176.322 231.148C176.187 231.399 176.12 231.686 176.12 232.01V237H174.89V231.757C174.89 231.333 174.748 230.991 174.466 230.731C174.183 230.472 173.826 230.342 173.393 230.342C173.096 230.342 172.817 230.411 172.555 230.55C172.293 230.689 172.082 230.896 171.923 231.169C171.763 231.442 171.684 231.782 171.684 232.188V237H170.453ZM185.308 237.096C184.793 237.096 184.34 236.99 183.951 236.778C183.561 236.566 183.258 236.246 183.042 235.817C182.825 235.389 182.717 234.854 182.717 234.211V229.357H183.947V234.108C183.947 234.696 184.102 235.157 184.412 235.489C184.722 235.822 185.144 235.988 185.677 235.988C186.041 235.988 186.368 235.909 186.658 235.749C186.947 235.59 187.176 235.356 187.345 235.048C187.513 234.741 187.598 234.37 187.598 233.938V229.357H188.835V237H187.646V235.147H187.81C187.573 235.863 187.236 236.367 186.801 236.658C186.366 236.95 185.868 237.096 185.308 237.096ZM193.859 237.164C193.226 237.164 192.665 237.002 192.178 236.679C191.69 236.355 191.31 235.897 191.036 235.305C190.763 234.712 190.626 234.01 190.626 233.199C190.626 232.393 190.764 231.694 191.04 231.104C191.315 230.514 191.697 230.059 192.185 229.74C192.672 229.421 193.233 229.262 193.866 229.262C194.363 229.262 194.757 229.344 195.049 229.508C195.34 229.672 195.565 229.858 195.722 230.065C195.879 230.272 195.999 230.444 196.081 230.581H196.177V226.814H197.407V237H196.218V235.817H196.081C195.999 235.959 195.877 236.135 195.715 236.347C195.554 236.559 195.326 236.748 195.032 236.915C194.738 237.081 194.347 237.164 193.859 237.164ZM194.044 236.063C194.509 236.063 194.901 235.942 195.22 235.698C195.539 235.454 195.78 235.116 195.944 234.683C196.108 234.25 196.19 233.751 196.19 233.186C196.19 232.62 196.11 232.127 195.948 231.706C195.786 231.284 195.546 230.955 195.227 230.718C194.908 230.481 194.513 230.362 194.044 230.362C193.561 230.362 193.159 230.488 192.837 230.738C192.516 230.989 192.276 231.327 192.116 231.753C191.957 232.18 191.877 232.657 191.877 233.186C191.877 233.719 191.958 234.203 192.12 234.638C192.281 235.073 192.524 235.42 192.848 235.677C193.171 235.935 193.57 236.063 194.044 236.063ZM201.707 237.178C201.224 237.178 200.785 237.087 200.391 236.904C199.997 236.722 199.684 236.455 199.451 236.104C199.219 235.754 199.103 235.327 199.103 234.826C199.103 234.389 199.189 234.033 199.362 233.76C199.535 233.486 199.767 233.271 200.056 233.114C200.346 232.957 200.666 232.839 201.017 232.762C201.368 232.684 201.721 232.623 202.076 232.577C202.532 232.518 202.903 232.472 203.19 232.44C203.478 232.409 203.691 232.354 203.83 232.276C203.969 232.199 204.038 232.067 204.038 231.88V231.839C204.038 231.52 203.979 231.25 203.86 231.029C203.742 230.808 203.564 230.638 203.327 230.52C203.09 230.401 202.794 230.342 202.438 230.342C202.074 230.342 201.762 230.399 201.502 230.513C201.242 230.627 201.031 230.769 200.87 230.94C200.708 231.111 200.586 231.285 200.504 231.463L199.321 231.073C199.517 230.608 199.782 230.245 200.114 229.983C200.447 229.721 200.814 229.535 201.215 229.426C201.616 229.316 202.012 229.262 202.404 229.262C202.66 229.262 202.95 229.292 203.276 229.354C203.602 229.416 203.916 229.537 204.219 229.72C204.522 229.902 204.773 230.172 204.971 230.53C205.169 230.888 205.269 231.365 205.269 231.962V237H204.059V235.961H203.977C203.89 236.139 203.751 236.322 203.56 236.511C203.368 236.7 203.12 236.859 202.814 236.986C202.509 237.114 202.14 237.178 201.707 237.178ZM201.919 236.091C202.375 236.091 202.76 236.002 203.074 235.824C203.389 235.646 203.628 235.415 203.792 235.13C203.956 234.846 204.038 234.548 204.038 234.238V233.179C203.988 233.238 203.879 233.292 203.71 233.339C203.541 233.387 203.349 233.429 203.132 233.466C202.916 233.502 202.706 233.533 202.503 233.558C202.301 233.583 202.14 233.603 202.021 233.616C201.725 233.653 201.448 233.715 201.191 233.804C200.933 233.893 200.727 234.023 200.572 234.194C200.417 234.365 200.34 234.596 200.34 234.888C200.34 235.152 200.408 235.373 200.545 235.551C200.682 235.729 200.868 235.863 201.105 235.954C201.342 236.045 201.614 236.091 201.919 236.091ZM208.659 232.42V237H207.429V226.814H208.659V231.21H208.447C208.68 230.504 209.011 230.002 209.442 229.706C209.873 229.41 210.377 229.262 210.956 229.262C211.471 229.262 211.923 229.368 212.313 229.58C212.703 229.792 213.006 230.111 213.222 230.537C213.439 230.963 213.547 231.499 213.547 232.146V237H212.31V232.249C212.31 231.661 212.156 231.201 211.848 230.868C211.541 230.535 211.12 230.369 210.587 230.369C210.222 230.369 209.894 230.449 209.603 230.608C209.311 230.768 209.081 231 208.912 231.306C208.743 231.611 208.659 231.982 208.659 232.42Z" fill="#464557"/>
</g>
<defs>
<filter id="filter0_dd_50_476" x="116" y="0" width="152" height="152" filterUnits="userSpaceOnUse" color-interpolation-filters="sRGB">
<feFlood flood-opacity="0" result="BackgroundImageFix"/>
<feColorMatrix in="SourceAlpha" type="matrix" values="0 0 0 0 0 0 0 0 0 0 0 0 0 0 0 0 0 0 127 0" result="hardAlpha"/>
<feMorphology radius="4" operator="erode" in="SourceAlpha" result="effect1_dropShadow_50_476"/>
<feOffset dy="4"/>
<feGaussianBlur stdDeviation="3"/>
<feComposite in2="hardAlpha" operator="out"/>
<feColorMatrix type="matrix" values="0 0 0 0 0 0 0 0 0 0 0 0 0 0 0 0 0 0 0.1 0"/>
<feBlend mode="normal" in2="BackgroundImageFix" result="effect1_dropShadow_50_476"/>
<feColorMatrix in="SourceAlpha" type="matrix" values="0 0 0 0 0 0 0 0 0 0 0 0 0 0 0 0 0 0 127 0" result="hardAlpha"/>
<feMorphology radius="3" operator="erode" in="SourceAlpha" result="effect2_dropShadow_50_476"/>
<feOffset dy="10"/>
<feGaussianBlur stdDeviation="7.5"/>
<feComposite in2="hardAlpha" operator="out"/>
<feColorMatrix type="matrix" values="0 0 0 0 0 0 0 0 0 0 0 0 0 0 0 0 0 0 0.1 0"/>
<feBlend mode="normal" in2="effect1_dropShadow_50_476" result="effect2_dropShadow_50_476"/>
<feBlend mode="normal" in="SourceGraphic" in2="effect2_dropShadow_50_476" result="shape"/>
</filter>
</defs>
</svg>
